<svg width="152" height="120" viewBox="0 0 152 120" fill="none" xmlns="http://www.w3.org/2000/svg">
<g clip-path="url(#clip0_23_1664)">
<path d="M31.5709 0C22.898 0 16.4801 7.52059 16.7675 15.6765C17.0436 23.5118 16.685 33.6606 14.1063 41.9365C11.5199 50.2365 7.14519 55.4941 0 56.1694V63.7906C7.14519 64.4659 11.5199 69.7235 14.1063 78.0241C16.685 86.3 17.0436 96.4476 16.7675 104.284C16.4801 112.438 22.898 119.96 31.5721 119.96H120.44C129.114 119.96 135.53 112.439 135.243 104.284C134.967 96.4482 135.325 86.3 137.904 78.0241C140.492 69.7241 144.855 64.4653 152 63.7906V56.1694C144.855 55.4941 140.492 50.2365 137.904 41.9365C135.325 33.6618 134.967 23.5124 135.243 15.6765C135.53 7.52176 129.114 0 120.44 0H31.5697H31.5709ZM103.051 73.8429C103.051 85.0735 94.5963 91.8841 80.5648 91.8841H56.6782C55.995 91.884 55.3399 91.615 54.8569 91.1363C54.3738 90.6577 54.1025 90.0086 54.1025 89.3318V30.6282C54.1024 30.293 54.169 29.961 54.2984 29.6513C54.4279 29.3416 54.6176 29.0601 54.8569 28.8231C55.0961 28.586 55.3801 28.3979 55.6927 28.2696C56.0054 28.1413 56.3404 28.0753 56.6788 28.0753H80.4282C92.128 28.0753 99.8064 34.3547 99.8064 43.9947C99.8064 50.7612 94.6408 56.8188 88.0602 57.8794V58.2329C97.0193 59.2065 103.051 65.3529 103.051 73.8429ZM77.9594 36.1665H64.3405V55.2253H75.8118C84.6788 55.2253 89.569 51.6877 89.569 45.3641C89.569 39.4388 85.3634 36.1665 77.9594 36.1665ZM64.3411 62.7876V83.7906H78.4617C87.6933 83.7906 92.5846 80.1206 92.5846 73.2229C92.5846 66.3241 87.5573 62.7865 77.8679 62.7865H64.3411V62.7876Z" fill="#7E13F8"/>
</g>
<defs>
<clipPath id="clip0_23_1664">
<rect width="152" height="120" fill="white"/>
</clipPath>
</defs>
</svg>
