<svg width="120" height="120" viewBox="0 0 120 120" fill="none" xmlns="http://www.w3.org/2000/svg">
<path d="M17.6381 106.99L8.21249 1.26746H111.787L102.352 106.974L59.9372 118.733L17.6381 106.99Z" fill="#1572B6"/>
<path d="M60.0009 109.746L94.275 100.243L102.338 9.91125H60.0009V109.746Z" fill="#33A9DC"/>
<path d="M60.0009 48.2147H77.1591L78.3441 34.9369H60.0009V21.9703H92.5153L92.2041 25.4494L89.0166 61.1813H60.0009V48.2147Z" fill="white"/>
<path d="M60.0778 81.8896L60.0206 81.9065L45.5803 78.0075L44.6569 67.6659H31.6425L33.4584 88.0256L60.0187 95.3971L60.0778 95.3803V81.8896Z" fill="#EBEBEB"/>
<path d="M76.0566 60.6328L74.4947 77.9972L60.0328 81.9009V95.3916L86.6147 88.0247L86.8097 85.8337L89.0653 60.6328H76.0566Z" fill="white"/>
<path d="M60.045 21.9703V34.9369H28.725L28.4653 32.0232L27.8747 25.4494L27.5644 21.9703H60.045ZM60.0009 48.2166V61.1832H45.7425L45.4828 58.2694L44.8912 51.6956L44.5819 48.2166H60.0009Z" fill="#EBEBEB"/>
</svg>
