<svg width="128" height="128" viewBox="0 0 128 128" fill="none" xmlns="http://www.w3.org/2000/svg">
<path d="M64 11.9839C51.3356 11.9836 39.0844 16.4899 29.4387 24.6965C19.7931 32.903 13.3824 44.2741 11.354 56.775C9.32558 69.2758 11.8118 82.0906 18.3677 92.926C24.9236 103.761 35.1213 111.91 47.136 115.915C49.8027 116.384 50.8 114.784 50.8 113.381C50.8 112.117 50.736 107.915 50.736 103.451C37.3333 105.915 33.8667 100.181 32.8 97.1839C31.6167 94.2652 29.7405 91.6787 27.3333 89.6479C25.4667 88.6506 22.8 86.1812 27.264 86.1172C28.97 86.3018 30.6064 86.8951 32.0343 87.8467C33.4622 88.7984 34.6396 90.0803 35.4667 91.5839C36.1959 92.8942 37.1765 94.0477 38.3523 94.9783C39.5282 95.9089 40.8761 96.5983 42.3188 97.0071C43.7616 97.4158 45.2708 97.5358 46.76 97.3603C48.2493 97.1847 49.6892 96.717 50.9973 95.9839C51.2283 93.2712 52.4377 90.735 54.4 88.8479C42.5333 87.5145 30.1333 82.9172 30.1333 62.5172C30.0578 57.2158 32.0137 52.0863 35.6 48.1812C33.9696 43.5744 34.1604 38.5188 36.1333 34.0479C36.1333 34.0479 40.5973 32.6506 50.8 39.5146C59.5268 37.1143 68.7398 37.1143 77.4667 39.5146C87.664 32.5812 92.1333 34.0479 92.1333 34.0479C94.1068 38.5186 94.2975 43.5745 92.6667 48.1812C96.2638 52.0796 98.2215 57.2135 98.1333 62.5172C98.1333 82.9812 85.664 87.5145 73.8027 88.8479C75.0745 90.1384 76.0538 91.6874 76.6741 93.3899C77.2943 95.0923 77.541 96.9083 77.3973 98.7146C77.3973 105.851 77.3333 111.584 77.3333 113.381C77.3333 114.784 78.3307 116.448 80.9973 115.915C92.9899 111.877 103.157 103.709 109.684 92.8679C116.212 82.0272 118.674 69.2197 116.631 56.7315C114.589 44.2434 108.175 32.8875 98.5344 24.691C88.8938 16.4944 76.654 11.9908 64 11.9839Z" fill="black"/>
</svg>
