<svg width="120" height="120" viewBox="0 0 120 120" fill="none" xmlns="http://www.w3.org/2000/svg">
<path d="M26.1131 109.082L18.5728 24.509H101.427L93.8794 109.069L59.9494 118.475L26.1131 109.082Z" fill="#E44D26"/>
<path d="M60 111.285L87.4163 103.684L93.8672 31.425H60V111.285Z" fill="#F16529"/>
<path d="M60 62.7918H46.2741L45.3272 52.169H60V41.7965H33.9909L34.2384 44.5799L36.7884 73.1634H60V62.7918ZM60 89.729L59.9541 89.7412L48.4031 86.6212L47.6644 78.3496H37.2516L38.7047 94.6359L59.9522 100.535L60 100.521V89.729Z" fill="#EBEBEB"/>
<path d="M26.2819 1.52527H31.5525V6.73402H36.375V1.52527H41.6466V17.2959H36.375V12.015H31.5534V17.2959H26.2819V1.52527ZM48.5775 6.75558H43.9369V1.52527H58.4916V6.75558H53.8491V17.2959H48.5775V6.75558ZM60.8016 1.52527H66.2972L69.6787 7.06683L73.0566 1.52527H78.555V17.2959H73.3041V9.47902L69.6787 15.0862H69.5869L65.9588 9.47902V17.2959H60.8006V1.52527H60.8016ZM81.1791 1.52527H86.4516V12.0834H93.8644V17.2968H81.1791V1.52527Z" fill="black"/>
<path d="M59.9644 62.7918V73.1634H72.7369L71.5331 86.6156L59.9644 89.7384V100.529L81.2288 94.6359L81.3844 92.8828L83.8219 65.5762L84.075 62.7918H81.2794H59.9644ZM59.9644 41.7965V52.169H85.0191L85.2263 49.8374L85.6997 44.5799L85.9481 41.7965H59.9644Z" fill="white"/>
</svg>
