<svg width="109" height="63" viewBox="0 0 109 63" fill="none" xmlns="http://www.w3.org/2000/svg">
<path d="M24.576 62.208C20.832 62.208 17.28 61.984 13.92 61.536C10.56 61.088 7.824 60.4 5.712 59.472C4.016 58.768 2.736 57.92 1.872 56.928C1.04 55.904 0.624 54.736 0.624 53.424C0.624 51.792 1.104 50.112 2.064 48.384C3.024 46.624 4.464 44.816 6.384 42.96C7.664 41.776 9.168 40.368 10.896 38.736C12.656 37.072 14.512 35.328 16.464 33.504C18.416 31.648 20.352 29.808 22.272 27.984C24.224 26.128 26.016 24.4 27.648 22.8C29.28 21.168 30.64 19.776 31.728 18.624C32.816 17.6 33.6 16.72 34.08 15.984C34.592 15.248 34.848 14.656 34.848 14.208C34.848 13.728 34.496 13.376 33.792 13.152C33.12 12.928 32.096 12.816 30.72 12.816C30.08 12.816 29.056 12.864 27.648 12.96C26.272 13.056 24.704 13.168 22.944 13.296C21.216 13.392 19.52 13.488 17.856 13.584C16.224 13.648 14.832 13.68 13.68 13.68C10.992 13.68 8.816 13.552 7.152 13.296C5.52 13.008 4.32 12.528 3.552 11.856C2.784 11.184 2.4 10.256 2.4 9.07199C2.4 7.536 2.912 6.272 3.936 5.27999C4.992 4.256 6.496 3.456 8.448 2.88C10.432 2.304 12.816 1.888 15.6 1.632C18.384 1.376 21.52 1.248 25.008 1.248C27.984 1.248 30.896 1.328 33.744 1.488C36.624 1.64799 39.184 1.88799 41.424 2.20799C43.696 2.496 45.408 2.864 46.56 3.31199C48.288 4.016 49.584 4.896 50.448 5.952C51.312 7.008 51.744 8.256 51.744 9.696C51.744 10.944 51.472 12.144 50.928 13.296C50.384 14.448 49.664 15.568 48.768 16.656C47.904 17.744 46.976 18.816 45.984 19.872C45.312 20.64 44.384 21.696 43.2 23.04C42.016 24.352 40.656 25.84 39.12 27.504C37.584 29.168 35.984 30.896 34.32 32.688C32.656 34.48 31.008 36.24 29.376 37.968C27.744 39.696 26.24 41.28 24.864 42.72C23.424 44.064 22.368 45.184 21.696 46.08C21.056 46.944 20.736 47.648 20.736 48.192C20.736 48.544 21.024 48.832 21.6 49.056C22.176 49.28 23.2 49.456 24.672 49.584C26.176 49.712 28.24 49.776 30.864 49.776C32.624 49.776 34.384 49.696 36.144 49.536C37.904 49.376 39.52 49.216 40.992 49.056C42.496 48.896 43.728 48.816 44.688 48.816C45.808 48.816 46.8 48.96 47.664 49.248C48.56 49.504 49.264 49.984 49.776 50.688C50.288 51.36 50.544 52.304 50.544 53.52C50.544 54.704 50 55.76 48.912 56.688C47.824 57.616 46.352 58.432 44.496 59.136C42.672 59.84 40.624 60.416 38.352 60.864C36.08 61.312 33.744 61.648 31.344 61.872C28.976 62.096 26.72 62.208 24.576 62.208ZM79.404 62.352C76.556 62.352 73.772 62.144 71.052 61.728C68.364 61.312 65.932 60.72 63.756 59.952C61.58 59.152 59.852 58.176 58.572 57.024C57.324 55.872 56.7 54.56 56.7 53.088C56.7 51.712 57.004 50.64 57.612 49.872C58.252 49.072 59.084 48.528 60.108 48.24C61.164 47.92 62.3 47.76 63.516 47.76C64.06 47.76 64.876 47.968 65.964 48.384C67.052 48.768 68.38 49.168 69.948 49.584C71.516 50 73.292 50.208 75.276 50.208C77.548 50.208 79.532 50.128 81.228 49.968C82.924 49.776 84.332 49.44 85.452 48.96C86.604 48.48 87.468 47.808 88.044 46.944C88.62 46.08 88.908 44.96 88.908 43.584C88.908 42.336 88.572 41.232 87.9 40.272C87.26 39.312 86.348 38.432 85.164 37.632C84.012 36.832 82.636 36.08 81.036 35.376C79.468 34.672 77.756 33.952 75.9 33.216C73.468 32.288 71.196 31.296 69.084 30.24C67.004 29.152 65.164 27.936 63.564 26.592C61.964 25.248 60.716 23.744 59.82 22.08C58.924 20.384 58.476 18.464 58.476 16.32C58.476 13.824 59.068 11.664 60.252 9.84C61.436 8.016 63.02 6.48 65.004 5.232C66.988 3.952 69.196 2.94399 71.628 2.20799C74.092 1.44 76.62 0.895998 79.212 0.575998C81.804 0.223997 84.268 0.0479965 86.604 0.0479965C89.228 0.0479965 91.708 0.239996 94.044 0.623995C96.38 0.975996 98.444 1.504 100.236 2.20799C102.06 2.88 103.484 3.696 104.508 4.656C105.532 5.616 106.044 6.704 106.044 7.92C106.044 9.136 105.756 10.128 105.18 10.896C104.604 11.664 103.852 12.24 102.924 12.624C102.028 12.976 101.052 13.152 99.996 13.152C99.388 13.152 98.588 12.928 97.596 12.48C96.636 12 95.42 11.536 93.948 11.088C92.508 10.64 90.732 10.416 88.62 10.416C87.244 10.416 85.884 10.528 84.54 10.752C83.228 10.944 82.028 11.28 80.94 11.76C79.852 12.208 78.988 12.832 78.348 13.632C77.708 14.432 77.388 15.456 77.388 16.704C77.388 17.952 77.708 19.056 78.348 20.016C78.988 20.944 79.868 21.792 80.988 22.56C82.108 23.296 83.42 24.016 84.924 24.72C86.46 25.392 88.108 26.08 89.868 26.784C92.268 27.744 94.572 28.832 96.78 30.048C99.02 31.232 101.02 32.592 102.78 34.128C104.54 35.632 105.916 37.328 106.908 39.216C107.932 41.104 108.444 43.232 108.444 45.6C108.444 48.672 107.676 51.28 106.14 53.424C104.636 55.568 102.54 57.296 99.852 58.608C97.196 59.92 94.108 60.864 90.588 61.44C87.1 62.048 83.372 62.352 79.404 62.352Z" fill="#E34F84"/>
</svg>
