<svg width="55" height="32" viewBox="0 0 55 32" fill="none" xmlns="http://www.w3.org/2000/svg">
<path d="M12.288 31.104C10.416 31.104 8.64 30.992 6.96 30.768C5.28 30.544 3.912 30.2 2.856 29.736C2.008 29.384 1.368 28.96 0.936 28.464C0.52 27.952 0.312 27.368 0.312 26.712C0.312 25.896 0.552 25.056 1.032 24.192C1.512 23.312 2.232 22.408 3.192 21.48C3.832 20.888 4.584 20.184 5.448 19.368C6.328 18.536 7.256 17.664 8.232 16.752C9.208 15.824 10.176 14.904 11.136 13.992C12.112 13.064 13.008 12.2 13.824 11.4C14.64 10.584 15.32 9.888 15.864 9.312C16.408 8.8 16.8 8.36 17.04 7.992C17.296 7.624 17.424 7.328 17.424 7.104C17.424 6.864 17.248 6.688 16.896 6.576C16.56 6.464 16.048 6.408 15.36 6.408C15.04 6.408 14.528 6.432 13.824 6.48C13.136 6.528 12.352 6.584 11.472 6.648C10.608 6.696 9.76 6.744 8.928 6.792C8.112 6.824 7.416 6.84 6.84 6.84C5.496 6.84 4.408 6.776 3.576 6.648C2.76 6.504 2.16 6.264 1.776 5.928C1.392 5.592 1.2 5.128 1.2 4.536C1.2 3.768 1.456 3.136 1.968 2.64C2.496 2.128 3.248 1.728 4.224 1.44C5.216 1.152 6.408 0.943998 7.8 0.815998C9.192 0.687998 10.76 0.623998 12.504 0.623998C13.992 0.623998 15.448 0.663998 16.872 0.743998C18.312 0.823997 19.592 0.943997 20.712 1.104C21.848 1.248 22.704 1.432 23.28 1.656C24.144 2.008 24.792 2.448 25.224 2.976C25.656 3.504 25.872 4.128 25.872 4.848C25.872 5.472 25.736 6.072 25.464 6.648C25.192 7.224 24.832 7.784 24.384 8.328C23.952 8.872 23.488 9.408 22.992 9.936C22.656 10.32 22.192 10.848 21.6 11.52C21.008 12.176 20.328 12.92 19.56 13.752C18.792 14.584 17.992 15.448 17.16 16.344C16.328 17.24 15.504 18.12 14.688 18.984C13.872 19.848 13.12 20.64 12.432 21.36C11.712 22.032 11.184 22.592 10.848 23.04C10.528 23.472 10.368 23.824 10.368 24.096C10.368 24.272 10.512 24.416 10.8 24.528C11.088 24.64 11.6 24.728 12.336 24.792C13.088 24.856 14.12 24.888 15.432 24.888C16.312 24.888 17.192 24.848 18.072 24.768C18.952 24.688 19.76 24.608 20.496 24.528C21.248 24.448 21.864 24.408 22.344 24.408C22.904 24.408 23.4 24.48 23.832 24.624C24.28 24.752 24.632 24.992 24.888 25.344C25.144 25.68 25.272 26.152 25.272 26.76C25.272 27.352 25 27.88 24.456 28.344C23.912 28.808 23.176 29.216 22.248 29.568C21.336 29.92 20.312 30.208 19.176 30.432C18.04 30.656 16.872 30.824 15.672 30.936C14.488 31.048 13.36 31.104 12.288 31.104ZM39.702 31.176C38.278 31.176 36.886 31.072 35.526 30.864C34.182 30.656 32.966 30.36 31.878 29.976C30.79 29.576 29.926 29.088 29.286 28.512C28.662 27.936 28.35 27.28 28.35 26.544C28.35 25.856 28.502 25.32 28.806 24.936C29.126 24.536 29.542 24.264 30.054 24.12C30.582 23.96 31.15 23.88 31.758 23.88C32.03 23.88 32.438 23.984 32.982 24.192C33.526 24.384 34.19 24.584 34.974 24.792C35.758 25 36.646 25.104 37.638 25.104C38.774 25.104 39.766 25.064 40.614 24.984C41.462 24.888 42.166 24.72 42.726 24.48C43.302 24.24 43.734 23.904 44.022 23.472C44.31 23.04 44.454 22.48 44.454 21.792C44.454 21.168 44.286 20.616 43.95 20.136C43.63 19.656 43.174 19.216 42.582 18.816C42.006 18.416 41.318 18.04 40.518 17.688C39.734 17.336 38.878 16.976 37.95 16.608C36.734 16.144 35.598 15.648 34.542 15.12C33.502 14.576 32.582 13.968 31.782 13.296C30.982 12.624 30.358 11.872 29.91 11.04C29.462 10.192 29.238 9.232 29.238 8.16C29.238 6.912 29.534 5.832 30.126 4.92C30.718 4.008 31.51 3.24 32.502 2.616C33.494 1.976 34.598 1.472 35.814 1.104C37.046 0.719998 38.31 0.447999 39.606 0.287999C40.902 0.111999 42.134 0.0239983 43.302 0.0239983C44.614 0.0239983 45.854 0.119998 47.022 0.311997C48.19 0.487998 49.222 0.751998 50.118 1.104C51.03 1.44 51.742 1.848 52.254 2.328C52.766 2.808 53.022 3.352 53.022 3.96C53.022 4.568 52.878 5.064 52.59 5.448C52.302 5.832 51.926 6.12 51.462 6.312C51.014 6.488 50.526 6.576 49.998 6.576C49.694 6.576 49.294 6.464 48.798 6.24C48.318 6 47.71 5.768 46.974 5.544C46.254 5.32 45.366 5.208 44.31 5.208C43.622 5.208 42.942 5.264 42.27 5.376C41.614 5.472 41.014 5.64 40.47 5.88C39.926 6.104 39.494 6.416 39.174 6.816C38.854 7.216 38.694 7.728 38.694 8.352C38.694 8.976 38.854 9.528 39.174 10.008C39.494 10.472 39.934 10.896 40.494 11.28C41.054 11.648 41.71 12.008 42.462 12.36C43.23 12.696 44.054 13.04 44.934 13.392C46.134 13.872 47.286 14.416 48.39 15.024C49.51 15.616 50.51 16.296 51.39 17.064C52.27 17.816 52.958 18.664 53.454 19.608C53.966 20.552 54.222 21.616 54.222 22.8C54.222 24.336 53.838 25.64 53.07 26.712C52.318 27.784 51.27 28.648 49.926 29.304C48.598 29.96 47.054 30.432 45.294 30.72C43.55 31.024 41.686 31.176 39.702 31.176Z" fill="white"/>
</svg>
