<svg width="128" height="76" viewBox="0 0 128 76" fill="none" xmlns="http://www.w3.org/2000/svg">
<g clip-path="url(#clip0_23_1693)">
<path d="M63.2775 75.7808C62.8442 75.7808 62.4397 75.669 62.064 75.4732L58.2212 73.2634C57.6432 72.9555 57.9322 72.8437 58.1057 72.7878C58.8857 72.536 59.0302 72.4799 59.8392 72.0326C59.926 71.9764 60.0417 72.0045 60.1282 72.0604L63.0755 73.7668C63.191 73.8227 63.3355 73.8227 63.422 73.7668L74.9507 67.3049C75.0662 67.249 75.1242 67.1369 75.1242 66.9972V54.1014C75.1242 53.9613 75.0662 53.8497 74.9507 53.7936L63.422 47.3597C63.3065 47.3035 63.162 47.3035 63.0755 47.3597L51.5467 53.7936C51.4312 53.8495 51.3732 53.9894 51.3732 54.1012V66.997C51.3732 67.1091 51.4312 67.2487 51.5467 67.3049L54.6962 69.0671C56.401 69.9063 57.47 68.9272 57.47 67.9482V55.2201C57.47 55.0524 57.6145 54.8844 57.8167 54.8844H59.2902C59.4637 54.8844 59.637 55.0243 59.637 55.2201V67.9482C59.637 70.158 58.3945 71.4449 56.2275 71.4449C55.563 71.4449 55.043 71.4449 53.5692 70.7454L50.5355 69.0671C49.7842 68.6477 49.322 67.8642 49.322 67.0251V54.1293C49.322 53.2901 49.7842 52.5066 50.5355 52.0872L62.064 45.6253C62.7865 45.2336 63.769 45.2336 64.4912 45.6253L76.0197 52.0872C76.771 52.5066 77.2335 53.2901 77.2335 54.1293V67.0251C77.2335 67.8642 76.771 68.6477 76.0197 69.0671L64.4912 75.5291C64.1155 75.6971 63.682 75.7808 63.2775 75.7808ZM66.8317 66.9132C61.7755 66.9132 60.7352 64.6754 60.7352 62.7732C60.7352 62.6052 60.8797 62.4375 61.082 62.4375H62.5845C62.7577 62.4375 62.9022 62.5493 62.9022 62.7173C63.1335 64.1998 63.798 64.9271 66.8607 64.9271C69.2877 64.9271 70.3282 64.3956 70.3282 63.1367C70.3282 62.4094 70.039 61.8781 66.254 61.5143C63.1045 61.2065 61.1397 60.5353 61.1397 58.1016C61.1397 55.8356 63.1047 54.4928 66.3985 54.4928C70.0967 54.4928 71.9172 55.7238 72.1485 58.409C72.1485 58.4932 72.1195 58.577 72.0617 58.661C72.0037 58.7169 71.9172 58.7728 71.8305 58.7728H70.328C70.1835 58.7728 70.039 58.661 70.0102 58.5211C69.6635 56.9827 68.7677 56.479 66.3985 56.479C63.7402 56.479 63.4222 57.3743 63.4222 58.0454C63.4222 58.8568 63.798 59.1085 67.3807 59.556C70.9347 60.0038 72.6107 60.6471 72.6107 63.0527C72.5817 65.5145 70.5015 66.9132 66.8317 66.9132Z" fill="#539E43"/>
<path d="M27.507 25.3441C27.507 24.8407 27.218 24.3648 26.7557 24.1131L14.5047 17.2876C14.3022 17.1756 14.0712 17.1197 13.8402 17.0916H13.7245C13.4935 17.0916 13.2622 17.1756 13.06 17.2876L0.808989 24.1131C0.346489 24.3648 0.0577393 24.8404 0.0577393 25.3441L0.0867393 43.6947C0.0867393 43.9465 0.231239 44.1982 0.462239 44.3102C0.693489 44.4501 0.982239 44.4501 1.18474 44.3102L8.46599 40.282C8.92824 40.0303 9.21724 39.5547 9.21724 39.0512V30.4632C9.21724 29.9598 9.50599 29.4842 9.96849 29.2325L13.06 27.498C13.2912 27.3581 13.5512 27.302 13.8112 27.302C14.0712 27.302 14.3312 27.3581 14.5337 27.498L17.6252 29.2325C18.0877 29.4842 18.3765 29.9595 18.3765 30.4632V39.0512C18.3765 39.5547 18.6655 40.0303 19.1277 40.282L26.409 44.3102C26.5215 44.3788 26.6517 44.4152 26.7846 44.4152C26.9175 44.4152 27.0478 44.3788 27.1602 44.3102C27.3915 44.1982 27.536 43.9465 27.536 43.6947L27.507 25.3441ZM86.3927 0.0838036C86.1617 -0.0282601 85.8727 -0.0282601 85.6702 0.0838036C85.4392 0.223702 85.2947 0.447345 85.2947 0.699065V18.8822C85.2947 19.0499 85.2082 19.2177 85.0347 19.3297C84.8615 19.4135 84.688 19.4135 84.5147 19.3297L81.452 17.6233C81.2275 17.4996 80.9735 17.4345 80.7151 17.4345C80.4567 17.4345 80.2028 17.4996 79.9782 17.6233L67.7272 24.4769C67.265 24.7286 66.976 25.2042 66.976 25.7077V39.3867C66.976 39.8901 67.265 40.366 67.7272 40.6177L79.9782 47.4713C80.2028 47.595 80.4567 47.6601 80.7151 47.6601C80.9735 47.6601 81.2275 47.595 81.452 47.4713L93.703 40.6177C94.1652 40.366 94.4542 39.8904 94.4542 39.3867V5.2869C94.4542 4.75538 94.1652 4.28002 93.703 4.02806L86.3927 0.0838036ZM85.266 34.8831C85.266 35.023 85.2082 35.1348 85.0925 35.1907L80.903 37.5404C80.8445 37.5681 80.7802 37.5824 80.7151 37.5824C80.65 37.5824 80.5858 37.5681 80.5272 37.5404L76.3377 35.1907C76.222 35.1348 76.1642 34.9949 76.1642 34.8831V30.1834C76.1642 30.0435 76.222 29.9317 76.3377 29.8758L80.5272 27.5259C80.5858 27.4982 80.65 27.4839 80.7151 27.4839C80.7802 27.4839 80.8445 27.4982 80.903 27.5259L85.0925 29.8758C85.2082 29.9315 85.266 30.0716 85.266 30.1834V34.8831ZM127.162 30.0716C127.624 29.8199 127.884 29.3443 127.884 28.8406V25.5119C127.884 25.0084 127.595 24.5328 127.162 24.2811L114.998 17.4556C114.773 17.3318 114.519 17.2667 114.261 17.2667C114.002 17.2667 113.749 17.3318 113.524 17.4556L101.273 24.3089C100.81 24.5606 100.522 25.0362 100.522 25.5397V39.219C100.522 39.7224 100.811 40.198 101.273 40.4497L113.437 47.1634C113.9 47.4151 114.449 47.4151 114.882 47.1634L122.25 43.1915C122.481 43.0795 122.626 42.8278 122.626 42.576C122.626 42.3243 122.481 42.0726 122.25 41.9605L109.941 35.107C109.71 34.9671 109.565 34.7434 109.565 34.4917V30.2118C109.565 29.96 109.71 29.7083 109.941 29.5963L113.784 27.4702C113.896 27.4016 114.027 27.3653 114.16 27.3653C114.293 27.3653 114.423 27.4016 114.535 27.4702L118.378 29.5963C118.609 29.7361 118.754 29.9598 118.754 30.2118V33.5686C118.754 33.8203 118.898 34.072 119.129 34.1838C119.242 34.2524 119.372 34.2888 119.505 34.2888C119.638 34.2888 119.768 34.2524 119.881 34.1838L127.162 30.0716Z" fill="#333333"/>
<path d="M114.073 29.4282C114.116 29.4008 114.166 29.3862 114.218 29.3862C114.269 29.3862 114.319 29.4008 114.362 29.4282L116.703 30.743C116.789 30.7991 116.847 30.8829 116.847 30.9947V33.6244C116.847 33.7362 116.789 33.8202 116.703 33.8761L114.362 35.1909C114.319 35.2183 114.269 35.2329 114.218 35.2329C114.166 35.2329 114.116 35.2183 114.073 35.1909L111.733 33.8761C111.646 33.8202 111.588 33.7362 111.588 33.6244V30.9949C111.588 30.8829 111.646 30.7989 111.733 30.7432L114.073 29.4282Z" fill="#539E43"/>
<path d="M47.9928 17.5118C47.7682 17.3881 47.5143 17.323 47.256 17.323C46.9977 17.323 46.7438 17.3881 46.5193 17.5118L34.355 24.309C33.8925 24.5607 33.6325 25.0363 33.6325 25.5397V39.1631C33.6325 39.6665 33.9215 40.1421 34.355 40.3938L46.5193 47.1915C46.7438 47.3152 46.9977 47.3803 47.256 47.3803C47.5143 47.3803 47.7682 47.3152 47.9928 47.1915L60.1573 40.3938C60.6195 40.1421 60.8798 39.6665 60.8798 39.1631V25.54C60.8798 25.0365 60.5905 24.5609 60.1573 24.3092L47.9928 17.5118Z" fill="url(#paint0_linear_23_1693)"/>
<mask id="mask0_23_1693" style="mask-type:luminance" maskUnits="userSpaceOnUse" x="33" y="17" width="28" height="31">
<path d="M47.9928 17.5118C47.7682 17.3881 47.5143 17.323 47.256 17.323C46.9977 17.323 46.7438 17.3881 46.5193 17.5118L34.355 24.309C33.8925 24.5607 33.6325 25.0363 33.6325 25.5397V39.1631C33.6325 39.6665 33.9215 40.1421 34.355 40.3938L46.5193 47.1915C46.7438 47.3152 46.9977 47.3803 47.256 47.3803C47.5143 47.3803 47.7682 47.3152 47.9928 47.1915L60.1573 40.3938C60.6195 40.1421 60.8798 39.6665 60.8798 39.1631V25.54C60.8798 25.0365 60.5905 24.5609 60.1573 24.3092L47.9928 17.5118Z" fill="white"/>
</mask>
<g mask="url(#mask0_23_1693)">
<path d="M60.186 24.3091L47.964 17.5117C47.8439 17.453 47.718 17.4061 47.5883 17.3718L33.8925 40.0866C34.006 40.2207 34.143 40.3344 34.2973 40.4223L46.5193 47.22C46.866 47.4158 47.2705 47.4717 47.646 47.3596L60.504 24.5892C60.4173 24.4773 60.3015 24.3929 60.186 24.3091Z" fill="url(#paint1_linear_23_1693)"/>
</g>
<mask id="mask1_23_1693" style="mask-type:luminance" maskUnits="userSpaceOnUse" x="33" y="17" width="28" height="31">
<path d="M47.9928 17.5118C47.7682 17.3881 47.5143 17.323 47.256 17.323C46.9977 17.323 46.7438 17.3881 46.5193 17.5118L34.355 24.309C33.8925 24.5607 33.6325 25.0363 33.6325 25.5397V39.1631C33.6325 39.6665 33.9215 40.1421 34.355 40.3938L46.5193 47.1915C46.7438 47.3152 46.9977 47.3803 47.256 47.3803C47.5143 47.3803 47.7682 47.3152 47.9928 47.1915L60.1573 40.3938C60.6195 40.1421 60.8798 39.6665 60.8798 39.1631V25.54C60.8798 25.0365 60.5905 24.5609 60.1573 24.3092L47.9928 17.5118Z" fill="white"/>
</mask>
<g mask="url(#mask1_23_1693)">
<path fill-rule="evenodd" clip-rule="evenodd" d="M60.215 40.3941C60.5618 40.1983 60.8218 39.8626 60.9375 39.499L47.5303 17.3438C47.1835 17.2879 46.8078 17.3157 46.4903 17.5116L34.3548 24.2814L47.4435 47.3875C47.6339 47.3574 47.8188 47.3009 47.9925 47.2198L60.215 40.3941Z" fill="url(#paint2_linear_23_1693)"/>
<path fill-rule="evenodd" clip-rule="evenodd" d="M60.215 40.3941L48.0218 47.1917C47.8496 47.2767 47.6641 47.3334 47.4728 47.3595L47.704 47.7792L61.2263 40.1985V40.0305L60.8795 39.4709C60.8218 39.8626 60.5618 40.1983 60.215 40.3941Z" fill="url(#paint3_linear_23_1693)"/>
<path fill-rule="evenodd" clip-rule="evenodd" d="M60.215 40.3941L48.0218 47.1917C47.8496 47.2767 47.6641 47.3334 47.4728 47.3595L47.704 47.7792L61.2263 40.1985V40.0305L60.8795 39.4709C60.8218 39.8626 60.5618 40.1983 60.215 40.3941Z" fill="url(#paint4_linear_23_1693)"/>
</g>
</g>
<defs>
<linearGradient id="paint0_linear_23_1693" x1="1891.57" y1="542.935" x2="618.824" y2="2608.58" gradientUnits="userSpaceOnUse">
<stop stop-color="#41873F"/>
<stop offset="0.3288" stop-color="#418B3D"/>
<stop offset="0.6352" stop-color="#419637"/>
<stop offset="0.9319" stop-color="#3FA92D"/>
<stop offset="1" stop-color="#3FAE2A"/>
</linearGradient>
<linearGradient id="paint1_linear_23_1693" x1="1185.56" y1="1674.92" x2="4474.67" y2="-170.845" gradientUnits="userSpaceOnUse">
<stop offset="0.1376" stop-color="#41873F"/>
<stop offset="0.4032" stop-color="#54A044"/>
<stop offset="0.7136" stop-color="#66B848"/>
<stop offset="0.9081" stop-color="#6CC04A"/>
</linearGradient>
<linearGradient id="paint2_linear_23_1693" x1="-82.3169" y1="1520.69" x2="2732.48" y2="1520.69" gradientUnits="userSpaceOnUse">
<stop offset="0.09192" stop-color="#6CC04A"/>
<stop offset="0.2864" stop-color="#66B848"/>
<stop offset="0.5968" stop-color="#54A044"/>
<stop offset="0.8624" stop-color="#41873F"/>
</linearGradient>
<linearGradient id="paint3_linear_23_1693" x1="-1380.98" y1="457.166" x2="1433.78" y2="457.166" gradientUnits="userSpaceOnUse">
<stop offset="0.09192" stop-color="#6CC04A"/>
<stop offset="0.2864" stop-color="#66B848"/>
<stop offset="0.5968" stop-color="#54A044"/>
<stop offset="0.8624" stop-color="#41873F"/>
</linearGradient>
<linearGradient id="paint4_linear_23_1693" x1="1843.86" y1="-1714.13" x2="1173.99" y2="1911.42" gradientUnits="userSpaceOnUse">
<stop stop-color="#41873F"/>
<stop offset="0.3288" stop-color="#418B3D"/>
<stop offset="0.6352" stop-color="#419637"/>
<stop offset="0.9319" stop-color="#3FA92D"/>
<stop offset="1" stop-color="#3FAE2A"/>
</linearGradient>
<clipPath id="clip0_23_1693">
<rect width="128" height="76" fill="white"/>
</clipPath>
</defs>
</svg>
