<svg width="148" height="120" viewBox="0 0 148 120" fill="none" xmlns="http://www.w3.org/2000/svg">
<g clip-path="url(#clip0_23_1666)">
<path d="M121.685 38.8546C120.11 38.3627 118.522 37.9069 116.922 37.4878C117.191 36.4878 117.438 35.4999 117.658 34.5294C121.264 18.592 118.906 5.75254 110.854 1.52517C103.133 -2.52746 90.506 1.69833 77.7538 11.802C76.497 12.7996 75.2681 13.8259 74.0682 14.8799C73.265 14.179 72.4476 13.4917 71.6164 12.8183C58.2513 2.01517 44.855 -2.53799 36.811 1.70149C29.097 5.76675 26.8129 17.8368 30.0596 32.941C30.3826 34.4369 30.7473 35.9251 31.1534 37.4041C29.2572 37.8946 27.4274 38.4167 25.6763 38.9725C10.0068 43.9462 0 51.7404 0 59.8252C0 68.1752 10.7427 76.5504 27.0632 81.6289C28.3863 82.0389 29.7205 82.4188 31.0644 82.7683C30.6279 84.3613 30.2404 85.9651 29.9024 87.5778C26.8071 102.42 29.2242 114.205 36.9173 118.244C44.8631 122.416 58.1993 118.128 71.1845 107.794C72.2375 106.954 73.2673 106.09 74.2729 105.203C75.5722 106.344 76.9063 107.453 78.2735 108.526C90.8523 118.38 103.275 122.359 110.961 118.308C118.899 114.125 121.479 101.465 118.129 86.062C117.866 84.8553 117.57 83.6546 117.242 82.461C118.179 82.2083 119.098 81.9483 119.994 81.6778C136.961 76.5604 148 68.2868 148 59.8252C148 51.711 137.67 43.8641 121.685 38.8546ZM118.006 76.2147C117.196 76.4583 116.366 76.6936 115.52 76.9225C113.647 71.5241 111.119 65.7841 108.026 59.8531C110.977 54.0636 113.408 48.3968 115.228 43.0336C116.743 43.4325 118.212 43.8531 119.628 44.2968C133.324 48.5894 141.678 54.9352 141.678 59.8252C141.678 65.0336 132.655 71.7952 118.006 76.2147ZM111.927 87.1799C113.408 93.9904 113.619 100.148 112.638 104.963C111.757 109.288 109.985 112.172 107.793 113.327C103.129 115.785 93.1544 112.59 82.3973 104.163C81.1256 103.165 79.8847 102.135 78.6759 101.074C82.8465 96.9215 87.0142 92.0947 91.0819 86.7336C98.2367 86.1557 104.996 85.2104 111.126 83.9204C111.421 85.001 111.688 86.0878 111.927 87.1799ZM50.4564 112.903C45.8997 114.367 42.2702 114.409 40.0762 113.258C35.4078 110.807 33.4671 101.344 36.1143 88.6515C36.429 87.1516 36.7893 85.66 37.1948 84.1783C43.257 85.3994 49.9673 86.2773 57.139 86.8068C61.2344 92.0525 65.5224 96.8741 69.8439 101.096C68.9255 101.905 67.9854 102.694 67.0243 103.46C61.2818 108.03 55.5278 111.272 50.4564 112.903ZM29.1086 76.1825C21.8919 73.9368 15.932 71.0183 11.8469 67.8336C8.17584 64.972 6.32295 62.1304 6.32295 59.8252C6.32295 54.9189 14.3572 48.661 27.7575 44.4078C29.3838 43.892 31.0858 43.4052 32.852 42.9483C34.7043 48.4325 37.1335 54.1668 40.0652 59.9652C37.0954 65.8494 34.6314 71.6752 32.7612 77.2241C31.5345 76.9042 30.3166 76.5569 29.1086 76.1825ZM36.2646 31.8352C33.4833 18.8946 35.3304 9.13307 39.9791 6.68307C44.9301 4.07359 55.8787 7.79412 67.4186 17.1225C68.1711 17.7322 68.9114 18.3542 69.6392 18.9883C65.3391 23.192 61.0905 27.9778 57.0315 33.1925C50.0708 33.7799 43.4079 34.7231 37.2821 35.9868C36.9047 34.6111 36.5654 33.2264 36.2646 31.8352ZM100.105 46.1873C98.6583 43.912 97.1577 41.6653 95.6045 39.4489C100.327 39.9925 104.851 40.7141 109.1 41.5962C107.824 45.3183 106.235 49.2094 104.363 53.1989C102.995 50.8361 101.576 48.4984 100.105 46.1873ZM74.0711 23.1025C76.9872 25.9789 79.9079 29.1899 82.7806 32.6741C76.9531 32.4236 71.1158 32.4225 65.2882 32.671C68.1638 29.2189 71.1094 26.012 74.0711 23.1025ZM47.8699 46.2262C46.4179 48.5188 45.0248 50.8419 43.6918 53.1936C41.851 49.2183 40.2757 45.3094 38.9893 41.5346C43.212 40.6746 47.715 39.9715 52.407 39.4378C50.8365 41.6678 49.3237 43.9316 47.8699 46.2262ZM52.5417 80.622C47.6942 80.1294 43.1235 79.4625 38.902 78.6257C40.2086 74.7836 41.8187 70.7915 43.6993 66.731C45.0376 69.0844 46.4365 71.409 47.8948 73.7025C49.3944 76.0604 50.9473 78.3699 52.5417 80.622ZM74.2457 96.9536C71.2487 94.0104 68.2598 90.7541 65.3408 87.252C68.1748 87.3531 71.0637 87.4047 74 87.4047C77.0167 87.4047 79.9986 87.3431 82.9338 87.2241C80.0518 90.7894 77.1421 94.0504 74.2457 96.9536ZM104.423 66.5236C106.401 70.6289 108.068 74.5999 109.392 78.3762C105.101 79.2678 100.468 79.9857 95.5866 80.5189C97.1509 78.2612 98.6657 75.9755 100.13 73.6631C101.619 71.3125 103.05 68.9321 104.423 66.5236ZM94.6535 70.7873C92.4117 74.3327 90.0438 77.8109 87.5536 81.2162C83.0428 81.5071 78.5221 81.6516 74 81.6494C69.3941 81.6494 64.9142 81.5189 60.6002 81.2641C58.045 77.8667 55.632 74.3824 53.3661 70.8189C51.111 67.2742 49.0051 63.6528 47.0519 59.9625C49.0001 56.2714 51.1002 52.6483 53.3476 49.101L53.3471 49.1015C55.5937 45.5532 57.9875 42.0838 60.5233 38.701C64.9246 38.3978 69.438 38.2399 73.9994 38.2399C78.5816 38.2399 83.1014 38.3994 87.5015 38.7046C90.0118 42.0825 92.3903 45.5399 94.6327 49.0704C96.8876 52.61 99.0155 56.2154 101.013 59.881C99.036 63.584 96.9149 67.2217 94.6535 70.7873ZM107.696 6.51149C112.652 9.11359 114.579 19.6068 111.465 33.3673C111.267 34.2452 111.043 35.1394 110.801 36.0462C104.66 34.7557 97.9922 33.7962 91.0113 33.1999C86.9448 27.9278 82.7308 23.1346 78.5007 18.9852C79.6093 18.0123 80.7444 17.0646 81.9047 16.1431C92.8313 7.48675 103.043 4.06886 107.696 6.51149ZM74 47.7936C81.2988 47.7936 87.2159 53.1804 87.2159 59.8252C87.2159 66.4699 81.2988 71.8568 74 71.8568C66.7012 71.8568 60.7841 66.4699 60.7841 59.8252C60.7841 53.1804 66.7012 47.7936 74 47.7936Z" fill="#00D8FF"/>
</g>
<defs>
<clipPath id="clip0_23_1666">
<rect width="148" height="120" fill="white"/>
</clipPath>
</defs>
</svg>
