<svg width="175" height="120" viewBox="0 0 175 120" fill="none" xmlns="http://www.w3.org/2000/svg">
<g clip-path="url(#clip0_23_1841)">
<path d="M150.583 69.0713C144.495 69.1 139.203 70.4406 134.773 72.4225C133.146 69.4788 131.521 66.8563 131.234 64.9325C130.915 62.6888 130.533 61.3188 130.915 58.6375C131.298 55.9563 133.019 52.1381 132.987 51.8469C132.956 51.5556 132.604 50.1856 129.098 50.1569C125.592 50.1275 122.564 50.7688 122.213 51.6138C121.862 52.4588 121.193 54.3825 120.747 56.3638C120.141 59.2788 113.734 69.6825 110.069 75.1325C108.889 73.0056 107.869 71.14 107.646 69.6538C107.327 67.41 106.944 66.04 107.327 63.3588C107.71 60.6775 109.431 56.86 109.399 56.5681C109.367 56.2769 109.016 54.9069 105.51 54.8781C102.003 54.8488 98.9748 55.49 98.6248 56.335C98.2741 57.1806 97.8913 59.1619 97.1585 61.0856C96.425 63.0094 87.9143 80.3794 85.683 84.8669C84.7813 86.6832 83.8355 88.481 82.8461 90.2588C82.8461 90.2588 82.814 90.3463 82.7183 90.4919C82.4075 91.0493 82.0889 91.6031 81.7626 92.1531V92.1819C81.2841 92.9694 80.7741 93.6975 80.5191 93.6975C80.3277 93.6975 79.9771 91.5994 80.5827 88.7431C81.8576 82.7106 84.8859 73.3263 84.8545 73.0056C84.8545 72.8306 85.428 71.1988 82.8782 70.3531C80.3913 69.5081 79.4992 70.9069 79.2757 70.9069C79.0528 70.9069 78.8929 71.4025 78.8929 71.4025C78.8929 71.4025 81.6669 60.8525 73.6019 60.8525C68.5658 60.8525 61.6164 65.8944 58.1738 70.4406C54.2604 72.3878 50.3502 74.3405 46.4434 76.2988C44.5635 77.2606 42.6187 78.2225 40.8017 79.1256C40.6738 79.0094 40.5467 78.8631 40.4189 78.7469C30.6647 69.2169 12.6233 62.4844 13.3882 49.6906C13.6753 45.0275 15.428 32.7869 48.0375 17.9238C74.8768 5.82875 96.2343 9.18 99.9319 16.6119C105.223 27.2206 88.4885 46.9219 60.7558 49.7775C50.1731 50.8563 44.6264 47.1256 43.2243 45.7269C41.758 44.2694 41.5345 44.1819 40.9924 44.4738C40.1003 44.9113 40.6738 46.2225 40.9924 46.98C41.8216 48.9613 45.232 52.4588 51.0016 54.1788C56.1019 55.6938 68.5016 56.5394 83.5153 51.235C100.314 45.2894 113.447 28.765 109.59 14.9219C105.733 0.874377 80.232 -3.75937 56.1019 4.08C41.758 8.74375 26.2022 16.0875 15.0138 25.6469C1.7213 37.0125 -0.382802 46.8925 0.477842 51.0313C3.57042 65.7194 25.7243 75.2787 34.5858 82.3606C34.1394 82.5937 33.7244 82.7981 33.3744 82.9731C28.9434 84.9837 12.049 93.0562 7.84151 101.596C3.06046 111.271 8.60714 118.208 12.2726 119.14C23.6524 122.026 35.3507 116.838 41.6302 108.269C47.9097 99.7012 47.1447 88.5681 44.2443 83.4681C44.2121 83.41 44.1807 83.3512 44.1164 83.2931C45.2642 82.6813 46.4434 82.04 47.5911 81.4281C49.7006 80.288 51.8369 79.1898 53.9984 78.1344C52.9143 80.845 52.1172 84.08 51.7351 88.7431C51.2566 94.2225 53.7107 101.333 56.9304 104.131C58.3652 105.356 60.0544 105.384 61.1386 105.384C64.8997 105.384 66.5896 102.528 68.4701 99.1475C70.765 95.0094 72.8369 90.2006 72.8369 90.2006C72.8369 90.2006 70.255 103.199 77.268 103.199C79.8178 103.199 82.3997 100.167 83.5475 98.6231V98.6519C83.5475 98.6519 83.611 98.5644 83.7389 98.3606C83.9939 97.9819 84.1531 97.7481 84.1531 97.7481V97.6906C85.1731 96.0581 87.4686 92.3569 90.879 86.2075C95.2779 78.2806 99.5176 68.3719 99.5176 68.3719C99.5176 68.3719 99.9004 70.7906 101.207 74.8125C101.972 77.1731 103.565 79.7669 104.841 82.2731C103.821 83.585 103.183 84.3131 103.183 84.3131L103.215 84.3425C102.386 85.3331 101.494 86.4113 100.505 87.4613C97.0307 91.2494 92.8874 95.5925 92.3132 96.845C91.6433 98.3312 91.8032 99.41 93.0788 100.284C94.003 100.926 95.6601 101.013 97.3499 100.926C100.474 100.721 102.673 100.022 103.757 99.585C105.446 99.0312 107.423 98.1856 109.271 96.9325C112.682 94.63 114.754 91.3369 114.563 86.995C114.467 84.605 113.606 82.215 112.554 79.9706C112.874 79.5631 113.16 79.155 113.479 78.7469C118.866 71.5481 123.042 63.65 123.042 63.65C123.042 63.65 123.425 66.0688 124.731 70.0913C125.369 72.1313 126.676 74.3463 127.823 76.5025C122.755 80.2625 119.631 84.6337 118.515 87.49C116.508 92.7944 118.069 95.1837 121.034 95.7375C122.372 96 124.285 95.4169 125.688 94.8631C127.472 94.3388 129.577 93.4356 131.585 92.0944C134.996 89.7925 138.279 86.5863 138.087 82.2444C137.992 80.2625 137.418 78.3094 136.621 76.415C140.924 74.7838 146.471 73.88 153.547 74.6375C168.721 76.2694 171.717 84.925 171.142 88.5688C170.569 92.2113 167.381 94.1931 166.33 94.805C165.277 95.4175 164.927 95.6212 165.023 96.0581C165.15 96.6994 165.66 96.6706 166.553 96.5537C167.796 96.35 174.522 93.61 174.809 86.9069C175.287 78.3387 166.361 68.9838 150.583 69.0713ZM33.5337 105.151C28.497 110.164 21.4847 112.058 18.4564 110.456C15.2052 108.736 16.4801 101.333 22.6639 96.0294C26.425 92.7944 31.2703 89.7919 34.4901 87.9562C35.2229 87.5481 36.307 86.9656 37.6141 86.2369C37.8369 86.12 37.9648 86.0619 37.9648 86.0619L38.7297 85.6244C40.9924 93.2019 38.8254 99.8763 33.5337 105.151ZM70.1914 82.3606C68.438 86.2662 64.7726 96.2625 62.5413 95.7088C60.6286 95.2425 59.4487 87.665 62.1585 80.175C63.5291 76.415 66.4296 71.9269 68.1194 70.1788C70.8607 67.3806 73.889 66.4475 74.6218 67.585C75.5467 69.0713 71.2749 79.9125 70.1914 82.3606ZM100.442 95.5919C99.7083 95.9419 99.0076 96.175 98.6884 96C98.4655 95.8831 99.0076 95.4169 99.0076 95.4169C99.0076 95.4169 102.801 91.6869 104.299 89.9963C105.16 89.0056 106.179 87.84 107.263 86.5281V86.9069C107.263 91.3662 102.545 94.3681 100.441 95.5919M123.774 90.725C123.232 90.375 123.328 89.2094 125.145 85.5663C125.846 84.1381 127.503 81.7488 130.341 79.4463C130.659 80.3788 130.883 81.2825 130.851 82.1275C130.819 87.7525 126.42 89.8506 123.774 90.725Z" fill="#CD6799"/>
</g>
<defs>
<clipPath id="clip0_23_1841">
<rect width="175" height="120" fill="white"/>
</clipPath>
</defs>
</svg>
