<svg width="224" height="27" viewBox="0 0 224 27" fill="none" xmlns="http://www.w3.org/2000/svg">
<g clip-path="url(#clip0_23_1661)">
<path d="M23.1293 0C16.9614 0 13.1062 2.9738 11.5644 8.92139C13.8775 5.94717 16.576 4.83216 19.6599 5.57592C21.4191 5.99991 22.6769 7.23094 24.0691 8.59359C26.3366 10.8127 28.9612 13.3819 34.6938 13.3819C40.8616 13.3819 44.7164 10.4081 46.2582 4.46048C43.9456 7.4347 41.2471 8.54972 38.1631 7.80595C36.4035 7.38197 35.1461 6.15094 33.754 4.78828C31.486 2.56922 28.8619 0 23.1293 0ZM11.5644 13.3819C5.397 13.3819 1.54175 16.3557 0 22.3033C2.31306 19.329 5.01113 18.214 8.09506 18.9578C9.85469 19.3818 11.1125 20.6128 12.5042 21.975C14.7722 24.195 17.3968 26.7633 23.1293 26.7633C29.2968 26.7633 33.1516 23.79 34.6938 17.8424C32.3807 20.8166 29.6822 21.9316 26.5987 21.1878C24.8391 20.7638 23.5813 19.5328 22.1891 18.1702C19.9216 15.9511 17.297 13.3819 11.5644 13.3819Z" fill="url(#paint0_linear_23_1661)"/>
<path d="M69.384 11.2767H65.3476V18.8105C65.3476 20.8195 66.7148 20.7883 69.384 20.6626V23.7072C63.9804 24.335 61.8319 22.8913 61.8319 18.8105V11.2771H58.8372V8.01264H61.8319V3.79642L65.3476 2.79236V8.01264H69.384V11.2767ZM84.7709 8.01264H88.2866V23.7072H84.7709V21.4472C83.5341 23.1111 81.6134 24.1156 79.0746 24.1156C74.6471 24.1156 70.9686 20.5056 70.9686 15.8599C70.9686 11.183 74.6471 7.60468 79.0742 7.60468C81.6134 7.60468 83.5341 8.60875 84.7709 10.2414V8.01264ZM79.6276 20.8824C82.5571 20.8824 84.7709 18.7793 84.7709 15.8599C84.7709 12.9406 82.5571 10.8375 79.6276 10.8375C76.6981 10.8375 74.4844 12.9406 74.4844 15.8599C74.4844 18.7793 76.6981 20.8824 79.6276 20.8824ZM94.1461 5.65815C92.9088 5.65815 91.8999 4.65409 91.8999 3.49267C91.9011 2.91858 92.1381 2.36832 92.5591 1.96237C92.9801 1.55643 93.5507 1.32788 94.1461 1.32676C94.7414 1.32788 95.3121 1.55643 95.733 1.96237C96.154 2.36832 96.391 2.91858 96.3922 3.49267C96.3922 4.65409 95.3829 5.65815 94.1461 5.65815ZM92.3882 23.7072V8.01264H95.9035V23.7072H92.3882ZM99.9727 23.7072V0.793091H103.488V23.7072H99.9727ZM126.308 8.01264H130.018L124.908 23.7072H121.457L118.072 13.1291L114.654 23.7072H111.203L106.092 8.01264H109.803L112.961 18.8422L116.379 8.01264H119.732L123.117 18.8422L126.308 8.01264ZM134.38 5.65858C133.144 5.65858 132.134 4.65409 132.134 3.49267C132.135 2.91858 132.372 2.36832 132.793 1.96237C133.214 1.55643 133.785 1.32788 134.38 1.32676C134.976 1.32788 135.546 1.55643 135.967 1.96237C136.388 2.36832 136.625 2.91858 136.626 3.49267C136.626 4.65409 135.617 5.65815 134.38 5.65815M132.622 23.7068V8.01264H136.138V23.7072L132.622 23.7068ZM148.768 7.60384C152.414 7.60384 155.019 9.98954 155.019 14.0703V23.7068H151.503V14.4159C151.503 12.0306 150.07 10.7751 147.857 10.7751C145.546 10.7751 143.723 12.093 143.723 15.295V23.7072H140.207V8.01264H143.723V10.0216C144.797 8.38895 146.555 7.60384 148.768 7.60384ZM171.685 1.73472H175.201V23.7072H171.685V21.4472C170.448 23.1111 168.528 24.1156 165.989 24.1156C161.561 24.1156 157.883 20.5056 157.883 15.8599C157.883 11.183 161.561 7.60468 165.988 7.60468C168.528 7.60468 170.448 8.60875 171.685 10.2414V1.73472ZM166.542 20.8824C169.471 20.8824 171.685 18.7793 171.685 15.8599C171.685 12.9406 169.471 10.8375 166.542 10.8375C163.612 10.8375 161.399 12.9406 161.399 15.8599C161.399 18.7793 163.612 20.8824 166.542 20.8824ZM186.984 24.1156C182.069 24.1156 178.391 20.5056 178.391 15.8599C178.391 11.183 182.069 7.60468 186.984 7.60468C190.175 7.60468 192.941 9.20528 194.244 11.6538L191.216 13.3489C190.5 11.8736 188.905 10.9316 186.952 10.9316C184.087 10.9316 181.906 13.0351 181.906 15.8599C181.906 18.6848 184.087 20.7883 186.952 20.7883C188.905 20.7883 190.5 19.815 191.282 18.3709L194.309 20.0348C192.941 22.5146 190.175 24.1156 186.984 24.1156ZM200.103 12.3445C200.103 15.2005 208.859 13.4742 208.859 19.2813C208.859 22.4201 206.027 24.1156 202.512 24.1156C199.257 24.1156 196.913 22.7027 195.871 20.4428L198.899 18.7477C199.419 20.1605 200.721 21.0077 202.512 21.0077C204.074 21.0077 205.279 20.5056 205.279 19.2501C205.279 16.4565 196.522 18.0258 196.522 12.4073C196.522 9.4563 199.159 7.60468 202.479 7.60468C205.149 7.60468 207.362 8.79733 208.502 10.8692L205.54 12.4697C204.953 11.2459 203.814 10.681 202.479 10.681C201.21 10.681 200.103 11.2142 200.103 12.3445ZM215.11 12.3445C215.11 15.2005 223.866 13.4742 223.866 19.2813C223.866 22.4201 221.034 24.1156 217.518 24.1156C214.263 24.1156 211.919 22.7027 210.878 20.4428L213.905 18.7477C214.426 20.1605 215.728 21.0077 217.518 21.0077C219.081 21.0077 220.285 20.5056 220.285 19.2501C220.285 16.4565 211.529 18.0258 211.529 12.4073C211.529 9.4563 214.165 7.60468 217.486 7.60468C220.155 7.60468 222.369 8.79733 223.508 10.8692L220.546 12.4697C219.96 11.2459 218.82 10.681 217.486 10.681C216.216 10.681 215.11 11.2142 215.11 12.3445Z" fill="#2D3748"/>
</g>
<defs>
<linearGradient id="paint0_linear_23_1661" x1="-128.505" y1="856.426" x2="3792.8" y2="3201.15" gradientUnits="userSpaceOnUse">
<stop stop-color="#2298BD"/>
<stop offset="1" stop-color="#0ED7B5"/>
</linearGradient>
<clipPath id="clip0_23_1661">
<rect width="224" height="27" fill="white"/>
</clipPath>
</defs>
</svg>
