<svg width="128" height="128" viewBox="0 0 128 128" fill="none" xmlns="http://www.w3.org/2000/svg">
<path d="M116.04 20.1199L92.976 9.01592C91.6738 8.38673 90.2079 8.17883 88.782 8.42113C87.3562 8.66343 86.0413 9.34388 85.02 10.3679L9.51999 79.1999C8.60396 80.0311 8.05562 81.1922 7.99561 82.4277C7.9356 83.6631 8.36883 84.8719 9.19999 85.7879C9.29866 85.8946 9.40133 85.9973 9.50799 86.0959L15.672 91.6959C16.4774 92.429 17.5142 92.8568 18.6023 92.905C19.6903 92.9532 20.7608 92.6189 21.628 91.9599L112.568 22.9999C113.255 22.4787 114.074 22.1595 114.932 22.0784C115.791 21.9972 116.655 22.1573 117.427 22.5406C118.199 22.9239 118.849 23.5152 119.304 24.2479C119.759 24.9806 120 25.8257 120 26.6879V26.4199C119.999 25.1037 119.627 23.8145 118.926 22.7001C118.226 21.5858 117.226 20.6915 116.04 20.1199Z" fill="#0065A9"/>
<path d="M116.04 107.88L92.976 118.988C91.6731 119.614 90.2079 119.821 88.7828 119.578C87.3577 119.336 86.0429 118.658 85.02 117.636L9.51999 48.8001C8.60396 47.9689 8.05562 46.8078 7.99561 45.5724C7.9356 44.3369 8.36883 43.1282 9.19999 42.2121C9.29866 42.1054 9.40133 42.0028 9.50799 41.9041L15.672 36.3041C16.4783 35.5679 17.5174 35.1383 18.6081 35.09C19.6988 35.0418 20.7719 35.378 21.64 36.0401L112.568 105C113.255 105.521 114.074 105.84 114.932 105.922C115.791 106.003 116.655 105.843 117.427 105.459C118.199 105.076 118.849 104.485 119.304 103.752C119.759 103.019 120 102.174 120 101.312V101.6C119.995 102.913 119.621 104.198 118.921 105.308C118.221 106.419 117.223 107.31 116.04 107.88Z" fill="#007ACC"/>
<path d="M92.976 118.988C91.6731 119.614 90.2079 119.82 88.7828 119.578C87.3577 119.336 86.0429 118.657 85.02 117.636C85.5944 118.203 86.3234 118.588 87.1155 118.742C87.9077 118.896 88.7278 118.814 89.4731 118.504C90.2184 118.194 90.8557 117.672 91.3053 117.001C91.7548 116.331 91.9964 115.543 92 114.736V13.2639C92.0007 12.4531 91.7607 11.6603 91.3104 10.986C90.8601 10.3116 90.2198 9.78611 89.4706 9.47598C88.7214 9.16586 87.897 9.08507 87.1019 9.24385C86.3068 9.40264 85.5766 9.79385 85.004 10.3679C86.0248 9.34324 87.3395 8.66203 88.7654 8.41901C90.1912 8.176 91.6574 8.38324 92.96 9.01193L116.02 20.0999C117.209 20.6687 118.214 21.5618 118.918 22.6763C119.622 23.7909 119.997 25.0816 120 26.3999V101.6C119.999 102.917 119.627 104.208 118.926 105.323C118.225 106.438 117.223 107.333 116.036 107.904L92.976 118.988Z" fill="#1F9CF0"/>
</svg>
